<svg width="93" height="22" viewBox="0 0 93 22" fill="none" xmlns="http://www.w3.org/2000/svg">
<path fill-rule="evenodd" clip-rule="evenodd" d="M7.86072 20.5605C8.52454 20.8899 9.03383 21.0511 9.27022 21.0511C10.1301 21.0511 14.6018 18.9185 16.9752 14.3092C19.4711 10.0174 18.25 3.51683 17.9359 2.07744C17.8952 1.89098 17.7728 1.74009 17.5984 1.66274C16.8852 1.34658 14.8123 0.51932 11.9398 0.164974L7.86072 20.5605ZM10.2843 0.0239033C9.95372 0.00834798 9.61549 0 9.27021 0C5.0386 0 1.81647 1.25388 0.879853 1.66197C0.701493 1.73968 0.576587 1.89423 0.536737 2.08466C0.232521 3.53841 -0.927834 10.0243 1.55459 14.3072C2.84451 16.8022 4.74557 18.5715 6.35503 19.6701L10.2843 0.0239033ZM16.2511 9.04546L13.3253 6.2859C13.27 6.23376 13.183 6.23631 13.1308 6.29159L12.1868 7.2925C12.1346 7.34778 12.1372 7.43486 12.1925 7.487L14.4826 9.64701L12.1925 11.807C12.1372 11.8592 12.1346 11.9462 12.1868 12.0015L13.1308 13.0024C13.183 13.0577 13.27 13.0603 13.3253 13.0081L16.2511 10.2486C16.5972 9.92217 16.5971 9.37183 16.2511 9.04546ZM5.16492 6.2859L2.23912 9.04546C1.89309 9.37183 1.89306 9.92217 2.23912 10.2486L5.16492 13.0081C5.2202 13.0603 5.30728 13.0577 5.35942 13.0024L6.30346 12.0015C6.3556 11.9462 6.35306 11.8592 6.29778 11.807L4.00765 9.64701L6.29778 7.487C6.35306 7.43486 6.3556 7.34778 6.30346 7.2925L5.35942 6.29159C5.30728 6.23631 5.2202 6.23376 5.16492 6.2859Z" fill="#A98CE7"/>
<mask id="mask0" mask-type="alpha" maskUnits="userSpaceOnUse" x="0" y="0" width="19" height="22">
<path fill-rule="evenodd" clip-rule="evenodd" d="M9.27022 21.0511C9.03383 21.0511 8.52454 20.8899 7.86072 20.5605L11.9398 0.164974C14.8123 0.51932 16.8852 1.34658 17.5984 1.66274C17.7728 1.74009 17.8952 1.89098 17.9359 2.07744C18.25 3.51683 19.4711 10.0174 16.9752 14.3092C14.6018 18.9185 10.1301 21.0511 9.27022 21.0511ZM9.27021 0C9.61549 0 9.95372 0.00834798 10.2843 0.0239033L6.35503 19.6701C4.74557 18.5715 2.84451 16.8022 1.55459 14.3072C-0.927834 10.0243 0.232521 3.53841 0.536737 2.08466C0.576587 1.89423 0.701493 1.73968 0.879853 1.66197C1.81647 1.25388 5.0386 0 9.27021 0ZM5.16492 6.2859L2.23912 9.04546C1.89309 9.37183 1.89306 9.92217 2.23912 10.2486L5.16492 13.0081C5.2202 13.0603 5.30728 13.0577 5.35942 13.0024L6.30346 12.0015C6.3556 11.9462 6.35306 11.8592 6.29778 11.807L4.00765 9.64701L6.29778 7.487C6.35306 7.43486 6.3556 7.34778 6.30346 7.2925L5.35942 6.29159C5.30728 6.23631 5.2202 6.23376 5.16492 6.2859Z" fill="#420DAB"/>
</mask>
<g mask="url(#mask0)">
<path d="M6.53552 22.4957L11.7983 -2.8894L2.44225 -2.06387L-2.75172 2.02939L-3.71484 12.5893L6.53552 22.4957Z" fill="#DFC7FF"/>
</g>
<path d="M24.5281 5.92877H22.019V8.60701H24.5281V20.3631H27.6011V8.60701H31.4634V5.92877H27.6011V4.71651C27.6011 4.23724 27.6856 3.87075 27.9112 3.64521C28.1367 3.41968 28.475 3.30691 28.9825 3.30691H31.4916V0.628662H28.5596C27.1782 0.628662 26.1633 0.966967 25.5149 1.61538C24.8382 2.2638 24.5281 3.22233 24.5281 4.49097V5.92877Z" fill="white"/>
<path d="M31.5909 9.28362C30.9989 10.4113 30.717 11.7081 30.717 13.1741C30.717 14.6401 30.9989 15.9369 31.6191 17.0364C32.2393 18.1641 33.0851 19.0099 34.2128 19.6301C35.3404 20.2503 36.6373 20.5322 38.1596 20.5322C39.8794 20.5322 41.3172 20.0812 42.473 19.1226C43.6289 18.1923 44.3337 16.9801 44.6156 15.5141H41.5709C41.3454 16.3316 40.9225 16.9519 40.3022 17.4029C39.6538 17.854 38.8645 18.0513 37.9341 18.0513C36.75 18.0513 35.7915 17.6849 35.0867 16.9519C34.3537 16.2189 33.959 15.2321 33.9026 13.9635V13.7943H44.7848C44.8412 13.3997 44.8694 13.0332 44.8694 12.6385C44.8412 11.2571 44.5311 10.0448 43.9108 9.0017C43.2906 7.98679 42.473 7.16922 41.4017 6.60538C40.3304 6.04154 39.1182 5.75962 37.7368 5.75962C36.3554 5.75962 35.1431 6.06973 34.0718 6.68995C33.0005 7.31018 32.1829 8.15594 31.5909 9.28362ZM41.7682 11.5672H34.0154C34.1282 10.5523 34.5229 9.76289 35.2559 9.14266C35.9889 8.52244 36.8346 8.21232 37.8495 8.21232C38.9208 8.21232 39.7948 8.52244 40.4996 9.11447C41.2044 9.7065 41.6273 10.5241 41.7682 11.5672Z" fill="white"/>
<path d="M54.1815 5.92877H53.5049C52.3773 5.92877 51.5033 6.12611 50.8549 6.5208C50.1783 6.91549 49.6426 7.42295 49.2479 8.09955L48.9096 5.92877H46.2032V20.3631H49.2479V13.1177C49.2479 11.8773 49.5299 10.8342 50.0937 10.0166C50.6575 9.19905 51.5597 8.77616 52.8283 8.77616H54.1815V5.92877Z" fill="white"/>
<path d="M57.2587 19.6301C58.3863 20.2503 59.655 20.5322 61.121 20.5322C62.5588 20.5322 63.8274 20.2503 64.9551 19.6301C66.0828 19.0099 66.9285 18.1641 67.5488 17.0364C68.169 15.9088 68.4791 14.6119 68.4791 13.1459C68.4791 11.7081 68.169 10.4395 67.5488 9.31181C66.9285 8.18413 66.0828 7.31018 64.9551 6.68995C63.8274 6.06973 62.5588 5.75962 61.121 5.75962C59.655 5.75962 58.3863 6.06973 57.2587 6.68995C56.131 7.31018 55.2852 8.18413 54.665 9.31181C54.0448 10.4395 53.7628 11.7081 53.7628 13.1459C53.7628 14.6119 54.0448 15.9088 54.665 17.0364C55.2852 18.1641 56.131 19.0099 57.2587 19.6301ZM64.1939 16.6136C63.4045 17.5157 62.3896 17.9386 61.121 17.9386C59.8241 17.9386 58.8092 17.5157 58.048 16.6136C57.2587 15.7114 56.8922 14.5555 56.8922 13.1459C56.8922 11.7363 57.2587 10.6086 58.048 9.7065C58.8092 8.80436 59.8241 8.35328 61.121 8.35328C62.3896 8.35328 63.4045 8.80436 64.1939 9.7065C64.9833 10.6086 65.378 11.7363 65.378 13.1459C65.378 14.5555 64.9833 15.7114 64.1939 16.6136Z" fill="white"/>
<path d="M72.7599 19.6301C73.8876 20.2503 75.1562 20.5322 76.6222 20.5322C78.06 20.5322 79.3286 20.2503 80.4563 19.6301C81.584 19.0099 82.4298 18.1641 83.05 17.0364C83.6702 15.9088 83.9803 14.6119 83.9803 13.1459C83.9803 11.7081 83.6702 10.4395 83.05 9.31181C82.4298 8.18413 81.584 7.31018 80.4563 6.68995C79.3286 6.06973 78.06 5.75962 76.6222 5.75962C75.1562 5.75962 73.8876 6.06973 72.7599 6.68995C71.6322 7.31018 70.7864 8.18413 70.1662 9.31181C69.546 10.4395 69.2641 11.7081 69.2641 13.1459C69.2641 14.6119 69.546 15.9088 70.1662 17.0364C70.7864 18.1641 71.6322 19.0099 72.7599 19.6301ZM79.6951 16.6136C78.9057 17.5157 77.8908 17.9386 76.6222 17.9386C75.3254 17.9386 74.3104 17.5157 73.5493 16.6136C72.7599 15.7114 72.3934 14.5555 72.3934 13.1459C72.3934 11.7363 72.7599 10.6086 73.5493 9.7065C74.3104 8.80436 75.3254 8.35328 76.6222 8.35328C77.8908 8.35328 78.9057 8.80436 79.6951 9.7065C80.4845 10.6086 80.8792 11.7363 80.8792 13.1459C80.8792 14.5555 80.4845 15.7114 79.6951 16.6136Z" fill="white"/>
<path d="M86.1211 8.60701V16.4444C86.1211 17.7976 86.4313 18.7843 87.0515 19.4046C87.6717 20.053 88.6866 20.3631 90.068 20.3631H93V17.6849H90.6883C90.1244 17.6849 89.7579 17.5721 89.5324 17.3465C89.3068 17.121 89.1941 16.6981 89.1941 16.1343V8.60701H92.6617V5.92877H89.1941V1.89731H86.1211V5.92877H83.6121V8.60701H86.1211Z" fill="white"/>
</svg>
